<svg width="75" height="50" viewBox="0 0 75 50" fill="none" xmlns="http://www.w3.org/2000/svg">
<path d="M30.9698 29.004C31.5404 29.3962 31.691 30.1841 31.2218 30.6932C30.1958 31.8065 28.8944 32.6415 27.4392 33.108C25.9841 33.5744 24.4397 33.6515 22.9577 33.3422C22.28 33.2008 21.9444 32.4721 22.1807 31.8213C22.417 31.1705 23.137 30.8482 23.8217 30.9509C24.772 31.0935 25.7482 31.0171 26.6739 30.7204C27.5996 30.4237 28.4383 29.9183 29.1286 29.2498C29.626 28.7682 30.3992 28.6119 30.9698 29.004Z" fill="white"/>
<circle cx="23.8579" cy="32.1562" r="1.875" fill="black"/>
<path d="M24.7546 32.2741C24.7546 32.9664 24.1905 33.5369 23.5052 33.4385C22.567 33.3039 21.654 33.0181 20.8024 32.5897C19.5762 31.9729 18.5114 31.0777 17.6932 29.9757C16.8749 28.8737 16.326 27.5955 16.0902 26.2434C15.9265 25.3043 15.9169 24.3476 16.0594 23.4106C16.1635 22.7261 16.8727 22.3511 17.5354 22.5514C18.1982 22.7516 18.5595 23.4528 18.4945 24.1421C18.4421 24.6976 18.4637 25.2594 18.5602 25.8127C18.7287 26.7794 19.1212 27.6932 19.7062 28.4811C20.2912 29.2689 21.0524 29.9089 21.929 30.3499C22.4308 30.6023 22.9624 30.7854 23.5092 30.8959C24.1879 31.033 24.7546 31.5817 24.7546 32.2741Z" fill="white"/>
<circle cx="17.1333" cy="24.1387" r="1.875" fill="black"/>
<path d="M17.2227 25.1141C16.5313 25.1491 15.933 24.6146 15.9966 23.9252C16.0865 22.9505 16.3387 21.9946 16.7456 21.0979C17.3259 19.8194 18.2037 18.6984 19.3058 17.8286C20.408 16.9588 21.7023 16.3655 23.0806 16.0983C24.0473 15.9109 25.0356 15.8877 26.0045 16.0268C26.6899 16.1252 27.0707 16.8312 26.8759 17.4956C26.6812 18.16 25.983 18.5272 25.2932 18.4678C24.7153 18.4182 24.1312 18.4485 23.5578 18.5597C22.5724 18.7507 21.6471 19.1749 20.8591 19.7967C20.0712 20.4186 19.4436 21.22 19.0288 22.1341C18.7874 22.666 18.6221 23.227 18.5362 23.8006C18.4335 24.4853 17.9142 25.079 17.2227 25.1141Z" fill="white"/>
<circle cx="25.2803" cy="17.1562" r="1.875" fill="black"/>
<path d="M24.2147 17.2105C24.1651 16.5199 24.6869 15.9105 25.3775 15.9596C26.47 16.0372 27.5421 16.3184 28.5375 16.7926C29.5329 17.2669 30.4267 17.9223 31.1752 18.7219C31.6484 19.2273 31.5039 20.0164 30.9364 20.413C30.3689 20.8095 29.5945 20.6593 29.0934 20.1815C28.6135 19.7241 28.0624 19.3435 27.4591 19.0561C26.8558 18.7687 26.2131 18.5804 25.5555 18.496C24.8688 18.4078 24.2642 17.901 24.2147 17.2105Z" fill="white"/>
<path d="M24.668 24.6445L50.7781 24.6445L70.6464 24.6445" stroke="white" stroke-width="2.26409" stroke-linecap="round"/>
<path d="M28.3248 24.8191C28.3248 26.7429 26.7653 28.3024 24.8416 28.3024C22.9179 28.3024 21.3584 26.7429 21.3584 24.8191C21.3584 22.8954 22.9179 21.3359 24.8416 21.3359C26.7653 21.3359 28.3248 22.8954 28.3248 24.8191Z" fill="white"/>
<path d="M27.6284 47.6344L29.0217 42.2355L33.9853 39.8843L37.6666 42.107C38.2151 42.4382 38.9189 42.3525 39.372 41.8994L41.6483 39.623" stroke="white" stroke-width="2.26409" stroke-linecap="round"/>
<ellipse cx="27.6073" cy="47.5439" rx="2.00431" ry="1.875" fill="black"/>
<path d="M2.20117 27.6055L7.33891 29.0858L9.51591 34.7461L7.55628 37.8544C7.22207 38.3846 7.28292 39.0726 7.70498 39.5358L9.77671 41.8097C10.2307 42.3079 10.9762 42.4098 11.5471 42.0515L15.002 39.8838L20.8363 42.235L21.8933 46.8152C22.0392 47.4474 22.6021 47.8952 23.2509 47.8952H27.5761" stroke="white" stroke-width="2.26409" stroke-linecap="round"/>
<ellipse cx="2.00431" cy="27.6299" rx="2.00431" ry="1.875" fill="black"/>
<path d="M22.1421 2.17773L20.8359 6.88007L15.0015 9.57956L11.4717 7.43398C10.9339 7.10709 10.2437 7.1813 9.78772 7.61506L7.72664 9.5756C7.28781 9.99302 7.16891 10.6461 7.43247 11.1914L9.51544 15.501L7.33843 20.4646L2.82977 22.2099C2.29317 22.4176 1.93945 22.9338 1.93945 23.5092V27.5181" stroke="white" stroke-width="2.26409" stroke-linecap="round"/>
<circle cx="22.1768" cy="2.28516" r="1.875" fill="black"/>
<path d="M22.2295 2.09082H26.4833C27.1087 2.09082 27.6575 2.50759 27.8254 3.11007L29.0218 7.40272L33.9853 9.57972L37.6362 6.89321C38.1908 6.48512 38.9603 6.54334 39.4472 7.03021L41.9967 9.57972" stroke="white" stroke-width="2.26409" stroke-linecap="round"/>
<path d="M40.8647 24.6445V32.6559C40.8647 33.4254 41.4885 34.0492 42.258 34.0492H53.5785" stroke="white" stroke-width="2.26409" stroke-linecap="round"/>
<path d="M54.6231 15.0664H42.196C41.4265 15.0664 40.8027 15.6902 40.8027 16.4597L40.8027 24.1228" stroke="white" stroke-width="2.26409" stroke-linecap="round"/>
<circle cx="56.278" cy="15.153" r="3.91861" fill="white"/>
<rect x="52.3594" y="30.0439" width="7.83722" height="7.83722" fill="white"/>
<path d="M75 24.6454L68.2077 28.5669V20.7238L75 24.6454Z" fill="white"/>
</svg>
